# xmcd
#
# Track frame offsets: 
#        150
#        14570
#        37065
#        57937
#        75895
#        93710
#        117700
#        136832
#        159355
#        177460
#
# Disc length: 2703 seconds
#
# Revision: 11
# Processed by: cddbd v1.5.2PL0 Copyright (c) Steve Scherf et al.
# Submitted via: ExactAudioCopy v0.95b3
#
DISCID=820a8d0a
DTITLE=Macy Gray - On How Life Is
DYEAR=1999
DGENRE=Rock
TTITLE0=Why Didn't You Call Me
TTITLE1=Do Something
TTITLE2=Caligula
TTITLE3=I Try
TTITLE4=Sex-O-Matic Venus Freak
TTITLE5=I Can't Wait To Meetchu
TTITLE6=Still
TTITLE7=I've Committed Murder
TTITLE8=A Moment To Myself
TTITLE9=The Letter
EXTD=YEAR: 1999 ID3G:  12
EXTT0=
EXTT1=
EXTT2=
EXTT3=
EXTT4=
EXTT5=
EXTT6=
EXTT7=
EXTT8=
EXTT9=
PLAYORDER=
